<svg xmlns="http://www.w3.org/2000/svg" xmlns:xlink="http://www.w3.org/1999/xlink" viewBox="0 0 30 30"><defs><style>.cls-1{fill:none;}.cls-2{fill:#82c9be;}.cls-3{clip-path:url(#clip-path);}.cls-4{fill:#40bccb;}</style><clipPath id="clip-path"><rect class="cls-1" x="1.44" y="4.06" width="27.11" height="21.88"/></clipPath></defs><g id="Layer_2" data-name="Layer 2"><path class="cls-2" d="M27.8,25.14H2.2V10H5.09l0,12.63L15,24.47l10-1.78L24.86,10H27.8Zm0,0"/><path class="cls-2" d="M28,25.29H2.05V9.82H5.24l0,12.66L15,24.32l9.81-1.75-.1-12.75H28V25.29ZM2.35,25H27.64V10.13H25l.09,12.69L15,24.62h0L5,22.73l0-12.6H2.35Zm0,0"/><g class="cls-3"><path class="cls-4" d="M28.55,25.9H1.44V6.72H5.09V8.23H3V24.38H27V8.23H24.86V6.72h3.69Zm0,0"/><path class="cls-4" d="M14.67,25.9l-.34-.65c-.69-1.31-5.82-2.14-9.23-2.31l-.72,0V4.1l.74,0A22.13,22.13,0,0,1,15,6.58c4-2.31,9.71-2.49,10-2.5l.78,0V23.17L24.85,23c-3.32-.49-9.45,2.51-9.52,2.54ZM5.89,21.47c2.2.15,7.48.7,9.33,2.49,1.5-.69,5.71-2.49,8.86-2.49h.12V5.64c-1.72.14-5.92.65-8.8,2.45L15,8.33l-.4-.22A21.61,21.61,0,0,0,5.89,5.6V21.47Zm0,0"/></g><path class="cls-4" d="M14.24,7.66h1.52V25.11H14.24ZM12.52,13c-1.7-1.57-4.88-1.35-4.92-1.34l-.11-1.51c.16,0,3.88-.27,6.06,1.74Zm0,6c-1-1.1-3.91-1.35-4.93-1.35V16.12c.44,0,4.4.06,6,1.85Zm5-6-1-1.11c2.18-2,5.9-1.76,6.05-1.74l-.11,1.51s-3.23-.22-4.92,1.34Zm.05,6-1.12-1c1.65-1.79,5.6-1.85,6.05-1.85v1.52c-1,0-3.92.25-4.93,1.35Zm0,0"/></g></svg>